<mxfile host="app.diagrams.net" agent="Mozilla/5.0 (Macintosh; Intel Mac OS X 10_15_7) AppleWebKit/537.36 (KHTML, like Gecko) Chrome/130.0.0.0 Safari/537.36" version="24.8.3">
  <diagram name="Page-1" id="3Ydko4eWkhsFAdbuEGbQ">
    <mxGraphModel grid="1" page="1" gridSize="10" guides="1" tooltips="1" connect="1" arrows="1" fold="1" pageScale="1" pageWidth="827" pageHeight="1169" math="0" shadow="0">
      <root>
        <mxCell id="0" />
        <mxCell id="1" parent="0" />
        <mxCell id="tzSFAmDOLW9M7Xx5LyEj-3" style="edgeStyle=orthogonalEdgeStyle;rounded=0;orthogonalLoop=1;jettySize=auto;html=1;" edge="1" parent="1" source="tzSFAmDOLW9M7Xx5LyEj-1" target="tzSFAmDOLW9M7Xx5LyEj-2">
          <mxGeometry relative="1" as="geometry" />
        </mxCell>
        <mxCell id="tzSFAmDOLW9M7Xx5LyEj-1" value="Actor" style="shape=umlActor;verticalLabelPosition=bottom;verticalAlign=top;html=1;outlineConnect=0;" vertex="1" parent="1">
          <mxGeometry x="384" y="40" width="30" height="60" as="geometry" />
        </mxCell>
        <mxCell id="tzSFAmDOLW9M7Xx5LyEj-5" value="" style="edgeStyle=orthogonalEdgeStyle;rounded=0;orthogonalLoop=1;jettySize=auto;html=1;" edge="1" parent="1" source="tel53RzCOOUWTWeOckJ8-1" target="tzSFAmDOLW9M7Xx5LyEj-4">
          <mxGeometry relative="1" as="geometry" />
        </mxCell>
        <mxCell id="tzSFAmDOLW9M7Xx5LyEj-7" style="edgeStyle=orthogonalEdgeStyle;rounded=0;orthogonalLoop=1;jettySize=auto;html=1;" edge="1" parent="1" source="tzSFAmDOLW9M7Xx5LyEj-2" target="tzSFAmDOLW9M7Xx5LyEj-6">
          <mxGeometry relative="1" as="geometry" />
        </mxCell>
        <mxCell id="tel53RzCOOUWTWeOckJ8-8" style="edgeStyle=orthogonalEdgeStyle;rounded=0;orthogonalLoop=1;jettySize=auto;html=1;entryX=1;entryY=0.5;entryDx=0;entryDy=0;entryPerimeter=0;" edge="1" parent="1" source="tzSFAmDOLW9M7Xx5LyEj-2" target="tel53RzCOOUWTWeOckJ8-7">
          <mxGeometry relative="1" as="geometry">
            <mxPoint x="260" y="220" as="targetPoint" />
          </mxGeometry>
        </mxCell>
        <mxCell id="tzSFAmDOLW9M7Xx5LyEj-2" value="Atm-Monitor" style="whiteSpace=wrap;html=1;aspect=fixed;" vertex="1" parent="1">
          <mxGeometry x="359" y="180" width="80" height="80" as="geometry" />
        </mxCell>
        <mxCell id="tzSFAmDOLW9M7Xx5LyEj-4" value="Database" style="shape=cylinder3;whiteSpace=wrap;html=1;boundedLbl=1;backgroundOutline=1;size=15;" vertex="1" parent="1">
          <mxGeometry x="369" y="680" width="60" height="80" as="geometry" />
        </mxCell>
        <mxCell id="tzSFAmDOLW9M7Xx5LyEj-6" value="File Storage" style="shape=cylinder3;whiteSpace=wrap;html=1;boundedLbl=1;backgroundOutline=1;size=15;" vertex="1" parent="1">
          <mxGeometry x="630" y="180" width="60" height="80" as="geometry" />
        </mxCell>
        <mxCell id="tel53RzCOOUWTWeOckJ8-2" value="" style="edgeStyle=orthogonalEdgeStyle;rounded=0;orthogonalLoop=1;jettySize=auto;html=1;" edge="1" parent="1" source="tzSFAmDOLW9M7Xx5LyEj-2" target="tel53RzCOOUWTWeOckJ8-1">
          <mxGeometry relative="1" as="geometry">
            <mxPoint x="399" y="260" as="sourcePoint" />
            <mxPoint x="399" y="680" as="targetPoint" />
          </mxGeometry>
        </mxCell>
        <mxCell id="tel53RzCOOUWTWeOckJ8-1" value="Cloud Service" style="whiteSpace=wrap;html=1;aspect=fixed;" vertex="1" parent="1">
          <mxGeometry x="359" y="440" width="80" height="80" as="geometry" />
        </mxCell>
        <mxCell id="tel53RzCOOUWTWeOckJ8-3" value="Load Balancer" style="rounded=0;whiteSpace=wrap;html=1;" vertex="1" parent="1">
          <mxGeometry x="339" y="320" width="120" height="60" as="geometry" />
        </mxCell>
        <mxCell id="tel53RzCOOUWTWeOckJ8-4" value="Blob Storage" style="shape=cylinder3;whiteSpace=wrap;html=1;boundedLbl=1;backgroundOutline=1;size=15;" vertex="1" parent="1">
          <mxGeometry x="630" y="600" width="90" height="80" as="geometry" />
        </mxCell>
        <mxCell id="tel53RzCOOUWTWeOckJ8-5" style="edgeStyle=orthogonalEdgeStyle;rounded=0;orthogonalLoop=1;jettySize=auto;html=1;entryX=0.5;entryY=0;entryDx=0;entryDy=0;entryPerimeter=0;" edge="1" parent="1" source="tel53RzCOOUWTWeOckJ8-1" target="tel53RzCOOUWTWeOckJ8-4">
          <mxGeometry relative="1" as="geometry" />
        </mxCell>
        <mxCell id="tel53RzCOOUWTWeOckJ8-7" value="Database" style="shape=cylinder3;whiteSpace=wrap;html=1;boundedLbl=1;backgroundOutline=1;size=15;" vertex="1" parent="1">
          <mxGeometry x="190" y="180" width="60" height="80" as="geometry" />
        </mxCell>
      </root>
    </mxGraphModel>
  </diagram>
</mxfile>
